<?xml version="1.0" standalone="no"?>
<!DOCTYPE svg PUBLIC "-//W3C//DTD SVG 20010904//EN"
 "http://www.w3.org/TR/2001/REC-SVG-20010904/DTD/svg10.dtd">
<svg version="1.0" xmlns="http://www.w3.org/2000/svg"
 width="342.000000pt" height="370.000000pt" viewBox="0 0 342.000000 370.000000"
 preserveAspectRatio="xMidYMid meet">

<g transform="translate(0.000000,370.000000) scale(100000,-0.100000)"
fill="#000000" stroke="none">
<path d="M1311 2904 c-169 -45 -301 -180 -346 -351 -22 -85 -22 -1101 0 -1186
45 -173 178 -307 350 -352 88 -22 1102 -22 1190 0 172 45 305 179 350 352 22
85 22 1101 0 1186 -45 173 -178 307 -350 352 -85 22 -1112 21 -1194 -1z m1023
-604 c72 -27 139 -88 173 -158 24 -49 28 -69 28 -142 0 -69 -5 -93 -23 -128
-35 -66 -88 -119 -150 -149 -49 -24 -69 -28 -142 -28 -75 0 -91 4 -139 30 -84
47 -136 115 -167 223 -2 9 -39 12 -138 12 l-135 0 -23 -41 c-50 -89 -174 -121
-257 -66 -77 51 -103 162 -57 241 70 120 256 118 312 -3 l19 -40 137 -1 138 0
6 28 c19 76 87 166 156 203 78 42 179 49 262 19z"/>
<path d="M2140 2210 c-92 -43 -134 -109 -134 -210 -1 -66 10 -94 58 -148 31
-35 92 -63 150 -69 138 -13 267 144 227 276 -39 131 -186 205 -301 151z"/>
<path d="M3413 2125 c0 -27 2 -38 4 -22 2 15 2 37 0 50 -2 12 -4 0 -4 -28z"/>
<path d="M3397 1718 c13 -67 22 -75 22 -20 1 39 -3 52 -14 52 -11 0 -13 -8 -8
-32z"/>
</g>
</svg>
