<?xml version="1.0" standalone="no"?>
<!DOCTYPE svg PUBLIC "-//W3C//DTD SVG 20010904//EN"
 "http://www.w3.org/TR/2001/REC-SVG-20010904/DTD/svg10.dtd">
<svg version="1.0" xmlns="http://www.w3.org/2000/svg"
 width="518.000000pt" height="372.000000pt" viewBox="0 0 518.000000 372.000000"
 preserveAspectRatio="xMidYMid meet">

<g transform="translate(0.000000,372.000000) scale(0.100000,-0.100000)"
fill="#000000" stroke="none">
<path d="M3275 2756 c-191 -38 -348 -126 -481 -269 -106 -113 -195 -288 -219
-429 l-6 -38 -389 0 c-305 0 -390 3 -390 13 0 6 -13 41 -30 75 -34 72 -132
180 -198 219 -142 83 -354 85 -497 3 -65 -37 -165 -141 -198 -206 -101 -200
-64 -428 97 -582 109 -104 202 -142 351 -142 145 0 249 45 353 154 56 58 122
168 122 204 0 9 84 12 388 12 l389 0 21 -87 c73 -296 307 -538 607 -629 81
-24 105 -27 240 -27 134 0 159 3 238 27 272 82 490 285 583 541 29 78 54 220
54 301 0 383 -264 731 -635 839 -112 33 -293 42 -400 21z m345 -265 c191 -60
352 -223 413 -416 17 -54 21 -95 21 -180 0 -85 -4 -126 -21 -180 -47 -148
-149 -276 -284 -357 -244 -144 -551 -105 -754 96 -58 57 -81 89 -118 166 -91
190 -91 360 0 550 37 77 60 109 118 166 82 82 196 145 305 169 86 20 234 13
320 -14z"/>
</g>
</svg>
